<?xml version="1.0" encoding="UTF-8" standalone="no"?>
<!DOCTYPE svg PUBLIC "-//W3C//DTD SVG 1.1//EN" "http://www.w3.org/Graphics/SVG/1.1/DTD/svg11.dtd">
<svg width="100%" height="100%" viewBox="0 0 1138 1143" version="1.1" xmlns="http://www.w3.org/2000/svg" xmlns:xlink="http://www.w3.org/1999/xlink" xml:space="preserve" xmlns:serif="http://www.serif.com/" style="fill-rule:evenodd;clip-rule:evenodd;stroke-linejoin:round;stroke-miterlimit:2;">
    <g id="Layer_2">
        <g id="Layer_1-2">
            <g>
                <clipPath id="_clip1">
                    <circle cx="576.04" cy="514.7" r="508.5"/>
                </clipPath>
                <g clip-path="url(#_clip1)">
                    <path d="M655.72,292.39C658.278,292.412 660.37,294.522 660.37,297.08C660.37,299.653 658.253,301.77 655.68,301.77C653.107,301.77 650.99,299.653 650.99,297.08C650.99,297.077 650.99,297.073 650.99,297.07C650.995,294.501 653.111,292.39 655.68,292.39C655.693,292.39 655.707,292.39 655.72,292.39Z" style="fill:white;fill-rule:nonzero;"/>
                    <path d="M655.72,292.39C658.278,292.412 660.37,294.522 660.37,297.08C660.37,299.653 658.253,301.77 655.68,301.77C653.107,301.77 650.99,299.653 650.99,297.08C650.99,297.077 650.99,297.073 650.99,297.07C650.995,294.501 653.111,292.39 655.68,292.39C655.693,292.39 655.707,292.39 655.72,292.39M655.72,286.71C650.031,286.71 645.35,291.391 645.35,297.08C645.35,302.769 650.031,307.45 655.72,307.45C661.409,307.45 666.09,302.769 666.09,297.08C666.09,297.077 666.09,297.073 666.09,297.07C666.068,291.391 661.399,286.726 655.72,286.71Z" style="fill:rgb(179,179,179);fill-rule:nonzero;"/>
                    <path d="M559.38,1142.21L553.7,1142.21C553.83,1113.08 551.47,1084.04 549.19,1055.96C546.06,1017.29 542.81,977.31 545.71,935.03L551.38,935.42C548.51,977.27 551.74,1017.04 554.86,1055.5C557.15,1083.68 559.51,1112.84 559.38,1142.21Z" style="fill:rgb(179,179,179);fill-rule:nonzero;"/>
                    <path d="M409,657.64C411.558,657.662 413.65,659.772 413.65,662.33C413.65,664.903 411.533,667.02 408.96,667.02C406.387,667.02 404.27,664.903 404.27,662.33C404.27,662.327 404.27,662.323 404.27,662.32C404.275,659.751 406.391,657.64 408.96,657.64C408.973,657.64 408.987,657.64 409,657.64Z" style="fill:white;fill-rule:nonzero;"/>
                    <path d="M409,657.64C411.558,657.662 413.65,659.772 413.65,662.33C413.65,664.903 411.533,667.02 408.96,667.02C406.387,667.02 404.27,664.903 404.27,662.33C404.27,662.327 404.27,662.323 404.27,662.32C404.275,659.751 406.391,657.64 408.96,657.64C408.973,657.64 408.987,657.64 409,657.64M409,651.96C403.311,651.96 398.63,656.641 398.63,662.33C398.63,668.019 403.311,672.7 409,672.7C414.689,672.7 419.37,668.019 419.37,662.33C419.37,662.327 419.37,662.323 419.37,662.32C419.326,656.656 414.664,652.016 409,652L409,651.96Z" style="fill:rgb(179,179,179);fill-rule:nonzero;"/>
                    <path d="M281.14,674.8L275.85,674.8L275.85,650.91L270.38,650.91L270.38,646.24L286.61,646.24L286.61,650.91L281.14,650.91L281.14,674.8Z" style="fill:rgb(179,179,179);fill-rule:nonzero;"/>
                    <path d="M308.77,660.48C308.77,665.213 307.887,668.847 306.12,671.38C304.325,673.774 301.502,675.187 298.51,675.187C295.518,675.187 292.695,673.774 290.9,671.38C289.133,668.853 288.25,665.203 288.25,660.43C288.25,655.657 289.133,652.033 290.9,649.56C292.626,647.063 295.528,645.631 298.56,645.78C301.572,645.643 304.448,647.084 306.14,649.58C307.9,652.12 308.777,655.753 308.77,660.48ZM293.68,660.48C293.55,663.02 293.97,665.557 294.91,667.92C295.46,669.44 296.904,670.464 298.52,670.48C301.72,670.48 303.323,667.147 303.33,660.48C303.337,653.813 301.747,650.48 298.56,650.48C296.935,650.489 295.478,651.508 294.91,653.03C293.969,655.396 293.549,657.937 293.68,660.48Z" style="fill:rgb(179,179,179);fill-rule:nonzero;"/>
                    <path d="M328.5,655C328.5,658 327.74,660.36 326.21,662C324.446,663.715 322.035,664.602 319.58,664.44L318.25,664.44L318.25,674.8L312.94,674.8L312.94,646.24L320.18,646.24C325.733,646.24 328.507,649.16 328.5,655ZM318.25,659.81L319.25,659.81C320.331,659.897 321.397,659.501 322.16,658.73C323.409,656.632 323.44,654.017 322.24,651.89C321.56,651.12 320.554,650.716 319.53,650.8L318.24,650.8L318.25,659.81Z" style="fill:rgb(179,179,179);fill-rule:nonzero;"/>
                    <path d="M345,674.8L332.1,674.8L332.1,646.24L345,646.24L345,650.83L337.44,650.83L337.44,657.63L344.44,657.63L344.44,662.24L337.44,662.24L337.44,670.15L345,670.15L345,674.8Z" style="fill:rgb(179,179,179);fill-rule:nonzero;"/>
                    <path d="M366.92,674.8L361.26,674.8L356.57,662.59L354.44,664.72L354.44,674.8L349.13,674.8L349.13,646.24L354.44,646.24L354.44,660.4L356.29,656.12L361.16,646.24L366.84,646.24L360.24,658.61L366.92,674.8Z" style="fill:rgb(179,179,179);fill-rule:nonzero;"/>
                    <path d="M383,674.8L381.36,667.59L373.92,667.59L372.28,674.8L366.97,674.8L374,646.12L381.21,646.12L388.3,674.8L383,674.8ZM380.37,662.88L378.84,656.24C378.75,655.84 378.55,654.83 378.23,653.24C377.91,651.65 377.72,650.53 377.65,649.98C377.48,651.1 377.27,652.34 377.01,653.68C376.75,655.02 376.07,658.11 375.01,662.91L380.37,662.88Z" style="fill:rgb(179,179,179);fill-rule:nonzero;"/>
                    <path d="M471.87,502.59L467.5,502.82L467.31,502.62L468.53,499.8L468.42,498.18L468.49,497.94L470.14,495.87L470.14,493.46L469.54,491.6L467.48,490L466.01,489.8L465.53,487.4L461.19,483.54L461.9,482.31L461.9,478.73L459.49,474.58L453.4,473.14L453.48,471.63L452.94,470.04L450.7,467.88L445.7,466.04L446,463.9L445.32,462.03L444.08,460.7L443.47,457.42L441.83,454.42L442.09,452.77L441.54,449.88L438.54,446.94L439.81,445.53L439.81,444.14L441.54,443.39L442.4,441.22L442.55,437.68L441.13,434.33L438.84,432.27L435.63,432.61L433.17,434.61L432.45,437.1L431,436.9L431,436.56L430.31,434.26L432.45,431.87L432.28,426.78L426.8,419.85L422.22,417.85L422.08,417.39L418,412.55L418.16,412.12L421.38,410.12L423.59,406.73L423.41,405.65L422.41,402.13L422.98,400.18L422.82,397.51L422.39,396.58L423.66,396.13L425.51,394.29L426.04,390.67L425.47,389.03L423.33,386.72L423.1,386.05L424.1,380.68L423.21,377.99L420.28,376.13L421.19,374.07L420.81,371.37L418.81,369.19L420.69,366.62L420.06,362.67L420.22,362.01L419.71,359.48L419.27,358.72L421.7,357.2L422.81,355.26L422.45,353.21L421.02,350.71L414.02,349.81L415.55,347.33L414.55,343.42L418.79,340.96L419.28,336.65L418.28,334.28L416.28,332.52L411.97,331.66L412.64,331.19L413.64,329.19L413.64,327.19L412.7,325.42L413.57,323.53L413.18,321.53L414.12,320.4L415.12,317.8L412.86,313.8L407.86,312.73L407.2,313.21L405.71,312.55L406.43,311.83L407.38,309.3L405.89,304.71L403.55,302.42L400.29,302.13L397.84,303.54L397.25,305.89L396.62,305.76L395.93,304.76L395.93,304.67L396.62,304.48L398.24,301.88L397.24,298.74L394.03,296.74L395.96,293.4L395.86,290.23L393.81,287.52L396.64,287.38L398.38,284.67L397.92,281.22L395.29,279.57L398.75,273.57L398.88,271.57L398.28,269.87L396.54,268.1L394.87,267.63L394.31,267.03L394.41,265.41L393.71,262.91L390.71,260.91L390.4,260.33L390.29,259.17L389.65,258.17L391.06,257.17L391.45,254.24L390.83,252.18L391.83,249.99L391.6,247.68L389,245.29L386.13,245.01L386.13,243.9L385.21,241.59L382.21,240.52L381.1,237.75L377.24,236.9L377.51,236.03L377.43,233.71L376.53,231.52L376.53,230.91L376.47,230.83L376.98,229.83L375.98,227.18L373.4,224.9L371.9,224.54L371.58,222.59L368.52,220.89L368.61,219L368.21,217.9L369.81,217.09L370.87,214.78L370.87,212.85L370.01,211.5L370.6,210.2L370.78,208.65L370.15,206.97L369.36,205.13L368.44,205.13L366.44,203.8L363.7,199.04L361.48,197.62L362.41,196.62L362.62,194.81L362.13,192.71L362.25,191.3L365.04,188.12L365.11,181.82L363.17,178.32L355.01,177.32L351.58,178.15L346.83,173.24L341.45,173.48L340.98,174.06L340.09,174.46L339.76,172.14L330.56,163.54L333.95,159.05L331.15,155L320.34,153.63L320.26,152.06L318.45,149.39L304.93,144.88L303.63,145.78L303.44,144.98L301.25,142.25L296.25,141.16L295.72,141.41L285.06,140L284.6,138L281.35,136.58L277.15,135.58L277.06,132.78L275.4,130.3L252.71,127.36L249.94,129.84L249.12,130L247.12,129.17L245.27,127.59L236,130L235.12,127.7L231.12,127.53L228.12,128.93L226,131.39L224.52,129L218.7,128L215.93,131.34L215.77,131.49L215.12,131.58L215.01,131.58L213.74,129.2L212.89,127.7L212.1,127.7L211.59,127.34L203.81,128.34L201.4,131.21L201.3,133.73L197.74,138.59L187.28,140.39L187.01,139.87L176.77,131.31L173.93,131.52L160.24,126L145.12,118.82L139.83,110.11L58.56,110.24L28.9,110L13.9,110C13.17,111.88 12.48,113.78 11.81,115.68L28.89,115.68L58.54,115.86L136.64,115.74L141.15,123.16L155.48,130L155.48,130.19L171.62,136.64L172.14,137.27L174.89,137.07L182.5,143.42L183.29,144.94L184.29,145.45L185.09,146.45L201,143.73L206.94,135.61L207.02,133.61L209.54,133.29L211,136L214.39,137.41L218.39,136.89L221.05,134.36L221.05,134.21L222.75,136.9L225.16,138.3L228.48,137.3L230.82,134.62L230.82,134.93L233.71,136.54L243.85,133.89L244.13,134.13L248.55,135.97L252.55,135.16L254.55,133.39L271.34,135.57L271.09,137.28L273.14,140.55L279.32,141.97L279.7,142.14L280.41,145.23L294.77,147L296.39,147.35L296.93,147.11L297.93,147.33L297.2,150.63L300.52,152.7L303.78,152.58L305.78,151.16L314.62,154.11L314.78,157.22L316.78,158.91L326.07,160.09L325.33,161.09L324.04,165.33L334.37,174.99L333.73,177.99L334.78,179.07L336.29,180.55L336.78,180.55L338.49,181.48L343.69,179.19L344.5,179.19L349.74,184.6L355.34,183.24L359.39,183.72L359.39,186.07L356.75,189.07L356.39,193.24L356.71,194.6L354.96,196.6L354.96,200.39L359.47,203.28L362.16,207.97L364.66,209.66L364.17,210.74L364.02,212.91L364.46,213.61L363.07,214.31L362.07,215.93L362.07,218.01L362.82,220.07L362.72,222.16L364,225.1L366.36,226.42L366.58,227.78L368.81,229.86L370.35,230.23L370.3,230.33L370.52,231.33L370.41,232.33L370.75,232.84L371.69,235.14L371.69,235.48L371.06,237.48L371.44,240.2L373.72,242.2L375.54,242.59L375.37,242.85L375.25,246.57L378.09,248.93L380.78,248.09L382.13,250.56L385.05,250.84L384.8,252.84L385.26,254.38L383,255.77L383.2,258.9L384.63,261.07L384.71,261.97L386.25,264.79L388.53,266.32L388.36,269.09L391.68,272.61L392.44,272.83L389.11,278.61L389.11,281.32L389.72,282.32L387.86,283.69L387.26,286.91L387.62,288.85L390,292L387.71,295.93L387.9,298.13L389.74,300.74L390.9,301.48L390.6,301.81L389.66,305.81L393.03,310.81L397.88,311.81L398.35,311.65L398.03,313.04L399.18,315.92L406.38,319.08L407.85,318.86L407.54,319.23L407.24,321.09L407.55,322.76L406.7,324.62L406.7,326.38L407.45,327.78L405.45,329.16L404.67,331.09L405.21,333.8L408.06,336.44L407.29,338.04L409.38,346.37L407.73,349.07L407.62,351.96L409.47,354.96L412.94,355.41L412.81,355.78L412.65,358.78L414.25,361.53L414.32,361.91L414.19,362.47L414.63,365.18L412.63,367.9L412.39,369.73L413.05,371.38L415.05,373.63L414.22,375.5L414.22,377.77L415.15,379.7L418.03,381.53L417.09,386.53L418.22,389.74L419.8,391.45L417.19,392.38L415.79,396.2L417.07,398.96L417.07,399.56L416.28,402.22L417.38,405.66L417.17,405.99L413.32,408.37L412.15,411.71L412.15,414.64L416.9,420.19L417.44,422.03L423.14,424.52L426.59,428.87L426.59,429.87L424.53,431.44L423.98,434.03L424.47,436.09L424.92,436.51L425.13,437.19L425.03,438.19L425.69,440.49L428.23,442.35L432.92,442.94L433.41,442.94L433.41,443.7L432,445.28L432,447.58L432.62,449.14L436.29,452.69L436.29,452.84L435.88,455.43L438.02,459.34L438.77,463.34L439.59,464.22L436.79,465.87L436.35,468.42L437.22,470.98L439.78,472.43L443.43,471.26L447.43,472.71L447.19,474.65L448.68,477.88L449.2,477.88L449.26,477.98L455.78,479.53L456.19,480.24L456.19,480.77L455,482.84L454.77,485.43L460.31,490.36L460.79,492.72L462.52,495.04L463.41,495.16L463.28,495.32L462.67,497.63L462.75,498.8L461.75,501.12L461.57,502.97L462.07,505.33L463.39,506.74L425.49,506.65L377.68,506.65L353.79,506.53L317.47,506.58L296.91,506.53L257.91,506.34L210,506.34L198.6,506.46L162,506.34L137.74,506.34L113.98,506.46L78.18,506.53L19,506.46L0,506.46C0.18,508.36 0.367,510.253 0.56,512.14L18.81,512.14L66.25,512.21L114,512.14L137.75,512.02L162,512.02L198.62,512.14L210,512L257.73,512L296.87,512.19L317.45,512.25L353.76,512.19L377.64,512.31L425.46,512.31L472.76,512.43L472.82,512.43L483,512L471.87,502.59Z" style="fill:rgb(179,179,179);fill-rule:nonzero;"/>
                    <path d="M272.2,342.07C272.2,346.803 271.317,350.437 269.55,352.97C267.755,355.364 264.932,356.777 261.94,356.777C258.948,356.777 256.125,355.364 254.33,352.97C252.557,350.437 251.673,346.77 251.68,341.97C251.687,337.17 252.57,333.547 254.33,331.1C256.055,328.602 258.958,327.169 261.99,327.32C265.002,327.183 267.878,328.624 269.57,331.12C271.323,333.707 272.2,337.357 272.2,342.07ZM257.11,342.07C256.982,344.609 257.402,347.147 258.34,349.51C258.89,351.03 260.334,352.054 261.95,352.07C265.15,352.07 266.75,348.737 266.75,342.07C266.75,335.403 265.163,332.07 261.99,332.07C260.365,332.077 258.905,333.096 258.34,334.62C257.399,336.986 256.979,339.527 257.11,342.07Z" style="fill:rgb(179,179,179);fill-rule:nonzero;"/>
                    <path d="M286.56,356.39L281.13,332.07L280.91,332.07C281.15,333.78 281.277,335.504 281.29,337.23L281.29,356.39L276.36,356.39L276.36,327.83L284.53,327.83L289.41,350.27L289.57,350.27L294.41,327.83L302.69,327.83L302.69,356.39L297.69,356.39L297.69,337C297.691,335.356 297.784,333.713 297.97,332.08L297.81,332.08L292.4,356.36L286.56,356.39Z" style="fill:rgb(179,179,179);fill-rule:nonzero;"/>
                    <path d="M321.25,356.39L319.61,349.18L312.16,349.18L310.52,356.39L305.21,356.39L312.28,327.71L319.49,327.71L326.58,356.39L321.25,356.39ZM318.61,344.47L317.09,337.83C316.99,337.43 316.79,336.42 316.47,334.83C316.15,333.24 315.96,332.13 315.89,331.58C315.73,332.7 315.51,333.94 315.25,335.28C314.99,336.62 314.31,339.71 313.25,344.51L318.61,344.47Z" style="fill:rgb(179,179,179);fill-rule:nonzero;"/>
                    <path d="M346.73,356.39L341.42,356.39L341.42,343.87L334.42,343.87L334.42,356.39L329.1,356.39L329.1,327.83L334.41,327.83L334.41,339.18L341.41,339.18L341.41,327.83L346.72,327.83L346.73,356.39Z" style="fill:rgb(179,179,179);fill-rule:nonzero;"/>
                    <path d="M365.29,356.39L363.65,349.18L356.21,349.18L354.57,356.39L349.25,356.39L356.32,327.71L363.53,327.71L370.62,356.39L365.29,356.39ZM362.65,344.47L361.13,337.83C361.04,337.43 360.83,336.42 360.51,334.83C360.19,333.24 360,332.13 359.94,331.58C359.77,332.7 359.55,333.94 359.29,335.28C359.03,336.62 358.36,339.71 357.29,344.51L362.65,344.47Z" style="fill:rgb(179,179,179);fill-rule:nonzero;"/>
                    <path d="M885,462.85L882.4,462.85L880.8,461.51L879.36,461.51L877.44,458.85L877.44,458.74L873.64,456.37L873.64,453.94L873.75,453.68L873.28,453.09L872.92,451.5L871.01,451.24L868.74,449.19L867.25,446.12L864.41,444.05L863.68,441.76L863.76,440.26L857.9,438.65L856.48,435.9L856.48,434.31L856.62,433.9L854.14,432.2L853.56,431.32L832.47,432.22L807.47,433.07L788.77,433.5L758.7,434.29L750.7,434.41L710.21,435.26L680,435.8L661.58,435.92L638.12,436.17L612.73,436.65L589.87,437.02L564.56,437.08L547.61,437L517.51,436.51L487.23,435.91L469.23,435.66L422.39,434.83L426.77,429.83L426.77,428.83L423.33,424.48L417.63,421.99L417.09,420.15L412.34,414.6L412.34,411.67L413.51,408.33L417.36,405.95L417.57,405.62L416.47,402.18L417.26,399.52L417.26,398.92L415.98,396.16L417.38,392.34L419.99,391.41L418.41,389.7L417.28,386.49L418.22,381.49L415.34,379.66L414.41,377.73L414.41,375.46L415.24,373.59L413.24,371.34L412.58,369.69L412.82,367.86L414.82,365.14L414.38,362.43L414.51,361.87L414.44,361.49L412.84,358.74L413,355.74L413.13,355.37L409.66,354.92L407.81,351.92L407.92,349.03L409.57,346.33L407.48,338L408.25,336.4L405.4,333.76L404.86,331.05L405.64,329.12L407.64,327.74L406.89,326.34L406.89,324.58L407.74,322.72L407.43,321.05L407.73,319.19L408.04,318.82L406.57,319.04L399.37,315.88L398.22,313L398.54,311.61L398.07,311.77L393.22,310.77L389.85,305.77L390.79,301.77L391.09,301.44L389.93,300.7L388.09,298.09L387.9,295.89L390,292L387.6,288.84L387.24,286.9L387.84,283.68L389.7,282.31L389.09,281.31L389.09,278.6L392.42,272.82L391.66,272.6L388.34,269.08L388.51,266.31L386.23,264.78L384.73,262L384.65,261.1L383.22,258.93L383.02,255.8L385.37,254.15L384.91,252.61L385.16,250.61L382.24,250.33L380.89,247.86L378.2,248.7L375.36,246.34L375.48,242.62L375.65,242.36L373.83,241.97L371.55,239.97L371.17,237.25L371.8,235.25L371.8,234.91L370.86,232.61L370.52,232.1L370.63,231.1L370.41,230.1L370.46,230L368.92,229.63L366.69,227.55L366.47,226.19L364.11,224.87L362.81,222L362.91,219.91L362.16,217.85L362.16,215.77L363.16,214.15L364.55,213.45L364.11,212.75L364.26,210.58L364.75,209.5L362.25,207.81L359.56,203.12L355,200.22L355,196.43L356.75,194.43L356.43,193.07L356.79,188.9L359.43,185.9L359.43,183.55L354.58,182.98L349.5,181.28L349.62,179.59L348.14,179.14L347.67,174.14L348.97,173.56L347.62,172.11L347.04,170.67L347.4,168.27L347.14,167.27L345.06,166.41L343.75,164.75L343.75,162.5L344.41,161.67L343.41,160.84L340.95,161.5L340.95,158.65L339.32,158.58L339.12,156.58L339,156.58L338.29,155.58L336.7,156.28L335.19,154.05L333.52,152.66L333.52,150.84L332.8,148.84L332.8,148.77L332.56,146.64L333.17,145.89L333.02,145.81L333.02,142.33L335.85,138.99L336.27,138.82L336.27,138.62L336.83,138.25L336.73,138.04L338.59,135.37L338.35,135.07L339.22,133.07L340.22,130.89L341.16,131.17L341.16,131.07L341.96,130.72L341.96,130.48L341.9,130.33L342.33,128.17L342.6,127.89L342.41,127.03L342.96,126.48L342.87,126.18L343.12,124.34L343.12,122.51L346.33,117.78L345.33,116.56L345.48,113.66L345.79,113.23L345.65,112.16L346.81,111.45L345.67,110.86L345.67,110L343.34,109.76L346.08,104.2L349.27,103.2L351.04,101.62L351.76,98.62L353.57,96.14L350.7,94.04L351.02,90.04L350.27,87.79L350.32,86.27L347.69,86.54L345.76,85.34L345.57,85.34L344.22,85.93L341.82,85.18L340.17,82.56L339.99,80.61L340.49,79.47L338.95,78.87L337.95,75.63L334.52,74.44L340.63,70.35L344.08,70.14L343.75,67.59L344.3,66.28L344.24,62.28L344.47,62.1L342.33,61.29L341.69,59.88L340.83,59.54L340,57.88L339.64,57.8L336.64,55.23L337.17,51.02L338.17,49.71L338.17,49.16L336.83,48.45L336.83,47.12L334.83,43.4L354.72,43.32L397.22,43.26L417.69,43.2L467.8,43.2L517.8,43.08L523.8,43.2L567.8,43.2L588.16,43.08L617.76,43.02L651.76,43.02L667.87,43.08L718,43.2L767.82,43.26L778.65,43.32L912,43.32L911.5,50.32L910.61,52.08L912.93,54.85L913.18,55.85L914.1,60.56L913.1,63.7L914.7,64.38L915.42,64.2L923.88,69.41L926.61,75.49L928.15,76.68L928.56,78.68L928.29,80.51L917,96.3L916.23,96.3L916.23,101.87L918.35,112.61L918.55,113.19L918.38,114.92L919.54,116.98L919.79,123.77L919.85,123.88L923.53,126.47L925.23,131.41L926.76,132.74L927.7,141.82L928.7,143.82L928.54,144.47L928.64,144.6L929.64,144.77L931.72,146.33L931.72,147.13L944.11,152.96L965.31,158.58L970.16,169.48L972.59,171.93L973.94,176.71L972.46,179.24L972,180L981,185.53L981.54,187.36L989.31,192.18L989.87,192.46L994.78,198.59L995.09,198.59L996.53,200.05L997.16,202.2L995.84,206.72L996.64,209.66L1000.64,214.46L1005.18,216.32L1018.52,222.72L1019.19,225.46L1022.11,226.2L1023.65,228.38L1023.4,236.95L1023.72,238.28L1024.38,239.33L1026.28,243.42L1025.94,245.89L1025.31,246.89L1024.92,248.89L1023.48,251.1L1024.31,253.66L1024.88,256.85L1021.53,265.85L1021.43,270.54L1020.43,272.54L1013.77,276.14L1007.11,281.41L1007.22,286.61L1005.41,288.41L1004.57,300.19L989.81,311L980.81,310.63L976.54,312.57L976.54,312.71L975.54,314.43L969.62,319.07L955.12,320.28L929.86,324.71L929.43,327.22L928.14,329.3L927.47,333.96L927.17,337.08L923.25,344.59L925.37,347.89L925.72,349.53L925.82,349.65L928,351L928.74,352.79L934.02,352.99L940.48,363.47L940.42,367.99L939.74,380.72L939.74,380.81L940.06,382.81L938.44,389L936.44,390.44L925.3,402.11L925.14,402.64L925.55,404.21L925.23,408.27L923.32,412.51L923.15,418.09L922.76,420.44L920.76,423.52L913.76,427.86L902.42,429.55L892,436.65L895.58,440.03L896.67,444.53L894.97,451.9L896.54,455.82L895.97,459.1L892.97,461.44L887,462.71L886.25,462.09L885,462.85ZM883.81,455.69L888.37,456.6L890.53,456.11L889,452.35L890.8,444.56L890.43,443L885.43,438.26L886.36,433.63L900.36,424.12L911.81,422.42L916.71,419.36L917.39,418.36L917.55,417.36L917.71,411.23L919.71,406.85L919.88,404.72L919.31,402.54L920.31,399.19L931.44,387.51L931.44,387.08L933.55,385.54L934.36,382.54L934,382L934.76,367.75L934.76,365.05L930.76,358.55L926.82,358.4L923.98,356.4L923.39,354.87L923.3,354.81L922.77,354.81L921.82,353.81L920.39,352.12L919.96,350.12L917.38,346L917.21,343.88L921.6,335.45L921.88,332.63L921.95,332.45L922.66,327.35L923.99,325.19L924.92,319.82L954.5,314.65L967.43,313.57L971.04,310.74L971.4,308.67L979.64,304.91L988.06,305.26L999.06,297.17L999.86,285.9L1001.46,284.31L1001.38,280.5L1001.77,278.38L1010.83,271.26L1015.72,268.62L1015.8,264.79L1018.94,256.34L1018.68,254.89L1017.55,251.52L1017.69,249.52L1019.49,246.75L1019.88,244.82L1020.27,244.21L1019.27,242.02L1018.38,240.69L1017.92,238.8L1017.67,238.48L1017.67,237.39L1017.86,231.09L1016.2,230.67L1014.14,229.01L1013.6,226.78L1002.77,221.57L997.14,219.28L991.49,212.43L990,206.7L991,203L986.16,196.94L976.68,191.04L976.14,189.24L965.85,182.93L966.35,178.14L967.84,175.9L967.54,174.9L965.41,172.75L961.24,163.39L942,158.18L927.49,151.35L926.61,149.98L925,149.7L924.08,148.12L923.94,148.05L922.69,146.49L922.69,146.19L922.46,145.88L922.72,144.52L922.18,143.46L921.36,135.56L920.36,134.7L918.76,130.06L915.54,127.8L914.16,125.37L913.91,118.57L912.55,116.15L912.77,113.87L912.77,113.65L910.58,102.39L910.63,94.39L911.42,92.39L913.72,91.21L922.22,79.29L922.04,79.15L919.43,73.35L914.5,70.35L914.26,70.42L908,67.72L906.6,64.3L907.09,62.39L907.77,61.61L908.2,60.25L907.67,57.51L905.48,54.88L904.83,52.77L904.93,50.64L905.75,49L767.78,49L715.17,48.93L651.81,48.75L617.86,48.75L588.28,48.81L567.92,48.93L523.81,48.93L517.81,48.81L460.59,48.93L417.78,48.93L397.31,49L343.91,49L344.02,51.51L343.11,52.69L344.52,52.98L345.4,55.19L345.97,55.41L346.59,56.79L348.82,57.63L350.69,59.63L350.59,64.63L350.01,65.08L350.01,67.41L349.59,68.41L350.02,71.65L348.63,75.59L345.58,75.77L345.94,76.25L346.94,77.37L347.64,79.85L348.78,80.56L349.31,80.17L352.5,79.88L355,81.69L356.15,84.31L356.07,87L356.87,89.36L356.71,91.36L358.39,92.59L359.57,95.41L359.25,98.16L357.78,100.16L358.03,101.42L357.88,102.57L358.06,102.91L355.88,106.31L353.52,107.22L353.43,107.22L352.54,108.02L353.63,110.44L353.63,112.74L352.24,114.9L351.95,115.08L352.02,115.16L353.45,118.73L352.28,119.88L352.92,122.26L350.81,122.65L350.42,127.32L350,127L349.69,129.74L348.8,129.91L348.45,130.79L348.59,130.96L348.59,134.18L347.4,134.69L347.48,135.39L346.48,136.24L346.48,136.88L344,138.62L343.4,138.47L343.28,138.63L344.06,140.36L342,141.69L342,142.69L340.05,143.45L342.46,145.78L339,147.45L339.33,147.8L339.25,148L339.49,149.53L341.77,150.67L342,150.99L344.24,153.12L344.73,153.12L345.73,154.5L348.38,155.88L348.56,157.3L348.63,157.3L351.07,160.76L351.07,161.69L351.21,161.76L352.45,165.02L354.57,166.27L355.03,166.34L355.03,166.51L356.57,167.41L354.49,168.52L354.28,169.3L354.91,169.72L355.22,175.62L354.94,176.12L355.48,177.29L355.88,177.42L363.24,178.29L365.18,181.79L365.11,188.09L362.32,191.27L362.2,192.68L362.69,194.78L362.48,196.59L361.55,197.59L363.77,199.01L366.51,203.77L368.51,205.1L369.43,205.1L370.22,206.94L370.85,208.62L370.68,210.17L370.09,211.47L370.94,212.82L370.94,214.75L369.88,217.06L368.28,217.87L368.68,218.97L368.59,220.86L371.65,222.56L371.97,224.51L373.47,224.87L376.05,227.15L377.05,229.8L376.54,230.8L376.6,230.88L376.6,231.48L377.5,233.68L377.58,236L377.31,236.87L381.17,237.72L382.28,240.49L385.28,241.56L386.2,243.87L386.2,245L389.07,245.28L391.56,247.65L391.79,249.96L390.79,252.15L391.41,254.21L391.02,257.14L389.61,258.14L390.25,259.14L390.36,260.3L390.67,260.88L393.67,262.88L394.37,265.38L394.27,267L394.83,267.6L396.5,268.07L398.24,269.84L398.84,271.54L398.71,273.54L395.25,279.54L397.88,281.19L398.34,284.64L396.6,287.35L393.77,287.49L395.82,290.2L395.92,293.37L393.99,296.71L397.2,298.71L398.2,301.85L396.58,304.45L395.89,304.64L395.89,304.73L396.58,305.73L397.21,305.85L397.8,303.5L400.25,302.09L403.51,302.38L405.85,304.67L407.35,309.26L406.35,311.79L405.63,312.51L407.12,313.17L407.78,312.69L412.78,313.76L415.04,317.76L414.04,320.36L413.1,321.49L413.49,323.49L412.62,325.38L413.56,327.15L413.56,329.15L412.56,331.15L411.89,331.62L416.2,332.48L418.2,334.24L419.2,336.61L418.71,340.92L414.47,343.38L415.47,347.29L414,349.81L421,350.71L422.43,353.21L422.79,355.26L421.68,357.2L419.25,358.72L419.69,359.48L420.2,362.01L420.04,362.67L420.67,366.62L418.78,369.19L420.78,371.37L421.16,374.07L420.25,376.13L423.18,377.99L424.07,380.68L423.07,386.05L423.3,386.72L425.44,389.03L426.01,390.67L425.48,394.29L423.63,396.13L422.36,396.58L422.79,397.51L422.95,400.18L422.38,402.13L423.38,405.65L423.56,406.73L421.35,410.12L418.13,412.12L417.97,412.55L422.11,417.39L422.25,417.85L426.83,419.85L432.31,426.78L432.39,429.28L469.28,429.94L487.28,430.18L517.57,430.79L547.63,431.27L564.53,431.4L589.78,431.33L612.59,430.97L638,430.49L661.5,430.24L679.89,430.12L710.03,429.58L750.52,428.73L758.52,428.61L788.52,427.82L807.2,427.39L832.2,426.55L856.48,425.55L858.23,428.19L861.53,430.46L862.53,434.07L867.36,435.4L869.54,437.4L869.38,440.74L871.7,442.43L873.32,445.79L873.47,445.92L878.77,446.65L880,450.2L879.53,451L880.29,452.56L879.88,453.56L882.6,455.26L882.79,455.81L883.48,455.81L883.61,455.89L883.81,455.69Z" style="fill:rgb(179,179,179);fill-rule:nonzero;"/>
                    <path d="M581.26,264.56C581.26,269.267 580.3,272.87 578.38,275.37C576.395,277.893 573.295,279.292 570.09,279.11L563.09,279.11L563.09,250.55L570.73,250.55C573.761,250.416 576.668,251.797 578.48,254.23C580.34,256.69 581.267,260.133 581.26,264.56ZM575.81,264.71C575.81,258.33 574.053,255.14 570.54,255.14L568.41,255.14L568.41,274.46L570.13,274.46C571.909,274.548 573.588,273.6 574.43,272.03C575.35,270.41 575.81,267.97 575.81,264.71Z" style="fill:rgb(179,179,179);fill-rule:nonzero;"/>
                    <path d="M598.29,279.11L585.42,279.11L585.42,250.55L598.29,250.55L598.29,255.14L590.74,255.14L590.74,261.94L597.74,261.94L597.74,266.55L590.74,266.55L590.74,274.46L598.29,274.46L598.29,279.11Z" style="fill:rgb(179,179,179);fill-rule:nonzero;"/>
                    <path d="M615.46,271.24C615.617,273.465 614.899,275.666 613.46,277.37C611.905,278.87 609.786,279.644 607.63,279.5C605.422,279.566 603.234,279.06 601.28,278.03L601.28,272.78C602.997,274.03 605.04,274.756 607.16,274.87C608.011,274.93 608.848,274.624 609.46,274.03C609.999,273.393 610.275,272.573 610.23,271.74C610.23,270.794 609.905,269.875 609.31,269.14C608.447,268.118 607.436,267.232 606.31,266.51C605.278,265.828 604.343,265.011 603.53,264.08C602.898,263.3 602.404,262.417 602.07,261.47C601.702,260.389 601.526,259.252 601.55,258.11C601.425,255.983 602.144,253.891 603.55,252.29C604.987,250.827 606.982,250.044 609.03,250.14C611.263,250.154 613.449,250.791 615.34,251.98L613.58,256.24C612.938,255.859 612.27,255.525 611.58,255.24C610.883,254.95 610.135,254.804 609.38,254.81C608.616,254.756 607.871,255.073 607.38,255.66C606.882,256.323 606.634,257.142 606.68,257.97C606.662,258.88 606.955,259.769 607.51,260.49C608.345,261.448 609.323,262.271 610.41,262.93C611.984,263.894 613.318,265.204 614.31,266.76C615.077,268.128 615.473,269.672 615.46,271.24Z" style="fill:rgb(179,179,179);fill-rule:nonzero;"/>
                    <path d="M639.06,279.11L633.63,254.79L633.41,254.79C633.647,256.5 633.77,258.224 633.78,259.95L633.78,279.11L628.86,279.11L628.86,250.55L637,250.55L641.91,273L642.06,273L646.91,250.56L655.19,250.56L655.19,279.12L650.19,279.12L650.19,259.75C650.192,258.106 650.283,256.464 650.46,254.83L650.31,254.83L644.9,279.11L639.06,279.11Z" style="fill:rgb(179,179,179);fill-rule:nonzero;"/>
                    <path d="M679.88,264.79C679.88,269.517 678.993,273.15 677.22,275.69C675.428,278.084 672.606,279.497 669.615,279.497C666.624,279.497 663.802,278.084 662.01,275.69C660.23,273.163 659.343,269.513 659.35,264.74C659.357,259.967 660.24,256.347 662,253.88C663.723,251.385 666.621,249.953 669.65,250.1C672.663,249.961 675.539,251.403 677.23,253.9C678.997,256.433 679.88,260.063 679.88,264.79ZM664.78,264.79C664.651,267.329 665.071,269.867 666.01,272.23C666.56,273.75 668.004,274.774 669.62,274.79C672.833,274.79 674.437,271.457 674.43,264.79C674.423,258.123 672.833,254.79 669.66,254.79C668.035,254.799 666.578,255.818 666.01,257.34C665.069,259.706 664.649,262.247 664.78,264.79Z" style="fill:rgb(179,179,179);fill-rule:nonzero;"/>
                    <rect x="685" y="250.55" width="5" height="28.56" style="fill:rgb(179,179,179);fill-rule:nonzero;"/>
                    <path d="M716,279.11L709.51,279.11L700.69,258.42L700.43,258.42C700.768,260.092 700.932,261.794 700.92,263.5L700.92,279.11L696,279.11L696,250.55L702.52,250.55L711.3,271L711.52,271C711.252,269.388 711.128,267.754 711.15,266.12L711.15,250.55L716,250.55L716,279.11Z" style="fill:rgb(179,179,179);fill-rule:nonzero;"/>
                    <path d="M733.94,279.11L721.07,279.11L721.07,250.55L733.94,250.55L733.94,255.14L726.38,255.14L726.38,261.94L733.38,261.94L733.38,266.55L726.38,266.55L726.38,274.46L733.94,274.46L733.94,279.11Z" style="fill:rgb(179,179,179);fill-rule:nonzero;"/>
                    <path d="M751.11,271.24C751.262,273.464 750.545,275.663 749.11,277.37C747.554,278.869 745.436,279.643 743.28,279.5C741.072,279.568 738.884,279.061 736.93,278.03L736.93,272.78C738.647,274.03 740.69,274.756 742.81,274.87C743.657,274.927 744.49,274.621 745.1,274.03C745.644,273.396 745.92,272.574 745.87,271.74C745.874,270.795 745.553,269.876 744.96,269.14C744.092,268.123 743.082,267.237 741.96,266.51C740.926,265.828 739.987,265.011 739.17,264.08C738.538,263.3 738.044,262.417 737.71,261.47C737.342,260.389 737.166,259.252 737.19,258.11C737.065,255.983 737.784,253.891 739.19,252.29C740.627,250.827 742.622,250.044 744.67,250.14C746.912,250.156 749.105,250.801 751,252L749.24,256.26C748.599,255.877 747.931,255.543 747.24,255.26C746.543,254.969 745.795,254.823 745.04,254.83C744.276,254.776 743.531,255.093 743.04,255.68C742.549,256.347 742.305,257.163 742.35,257.99C742.327,258.9 742.62,259.791 743.18,260.51C744.013,261.47 744.991,262.294 746.08,262.95C747.654,263.911 748.985,265.222 749.97,266.78C750.736,268.14 751.13,269.679 751.11,271.24Z" style="fill:rgb(179,179,179);fill-rule:nonzero;"/>
                    <path d="M613.1,617.32L607.44,617.32L602.75,605.11L600.62,607.24L600.62,617.32L595.31,617.32L595.31,588.77L600.62,588.77L600.62,602.93L602.48,598.65L607.34,588.77L613,588.77L606.4,601.13L613.1,617.32Z" style="fill:rgb(179,179,179);fill-rule:nonzero;"/>
                    <path d="M629.14,617.32L627.5,610.11L620.05,610.11L618.41,617.32L613.1,617.32L620.17,588.65L627.38,588.65L634.47,617.32L629.14,617.32ZM626.5,605.41L625,598.77C624.9,598.36 624.7,597.35 624.38,595.77C624.06,594.19 623.87,593.06 623.8,592.52C623.63,593.64 623.42,594.87 623.16,596.22C622.9,597.57 622.22,600.64 621.16,605.45L626.5,605.41Z" style="fill:rgb(179,179,179);fill-rule:nonzero;"/>
                    <path d="M657,617.32L650.5,617.32L641.67,596.64L641.42,596.64C641.758,598.312 641.922,600.014 641.91,601.72L641.91,617.32L637,617.32L637,588.77L643.52,588.77L652.27,609.24L652.49,609.24C652.218,607.625 652.091,605.988 652.11,604.35L652.11,588.77L657,588.77L657,617.32Z" style="fill:rgb(179,179,179);fill-rule:nonzero;"/>
                    <path d="M675,609.45C675.159,611.675 674.441,613.877 673,615.58C671.446,617.082 669.326,617.857 667.17,617.71C664.964,617.773 662.777,617.271 660.82,616.25L660.82,611C662.537,612.25 664.58,612.976 666.7,613.09C667.551,613.15 668.388,612.844 669,612.25C669.538,611.616 669.813,610.8 669.77,609.97C669.769,609.021 669.444,608.1 668.85,607.36C667.984,606.341 666.973,605.455 665.85,604.73C664.814,604.054 663.878,603.236 663.07,602.3C662.434,601.522 661.94,600.639 661.61,599.69C661.243,598.612 661.067,597.478 661.09,596.34C660.967,594.21 661.685,592.115 663.09,590.51C664.529,589.051 666.523,588.272 668.57,588.37C670.802,588.381 672.988,589.015 674.88,590.2L673.12,594.46C672.474,594.087 671.806,593.753 671.12,593.46C670.449,593.174 669.729,593.018 669,593C668.237,592.951 667.494,593.267 667,593.85C666.5,594.516 666.252,595.338 666.3,596.17C666.282,597.08 666.575,597.969 667.13,598.69C667.968,599.645 668.945,600.468 670.03,601.13C671.606,602.091 672.94,603.402 673.93,604.96C674.679,606.335 675.048,607.885 675,609.45Z" style="fill:rgb(179,179,179);fill-rule:nonzero;"/>
                    <path d="M692.07,617.32L690.42,610.11L683,610.11L681.36,617.32L676,617.32L683.07,588.65L690.28,588.65L697.37,617.32L692.07,617.32ZM689.43,605.41L687.91,598.77C687.81,598.36 687.61,597.35 687.29,595.77C686.97,594.19 686.78,593.06 686.71,592.52C686.54,593.64 686.33,594.87 686.07,596.22C685.81,597.57 685.13,600.64 684.07,605.45L689.43,605.41Z" style="fill:rgb(179,179,179);fill-rule:nonzero;"/>
                    <path d="M712.92,609.45C713.079,611.675 712.361,613.877 710.92,615.58C709.366,617.082 707.246,617.857 705.09,617.71C702.887,617.775 700.703,617.272 698.75,616.25L698.75,611C700.461,612.253 702.502,612.979 704.62,613.09C705.471,613.15 706.308,612.844 706.92,612.25C707.458,611.616 707.733,610.8 707.69,609.97C707.689,609.021 707.364,608.1 706.77,607.36C705.903,606.342 704.892,605.456 703.77,604.73C702.729,604.057 701.789,603.239 700.98,602.3C700.344,601.522 699.85,600.639 699.52,599.69C699.153,598.612 698.977,597.478 699,596.34C698.877,594.21 699.595,592.115 701,590.51C702.439,589.051 704.433,588.272 706.48,588.37C708.712,588.381 710.898,589.015 712.79,590.2L711,594.45C710.355,594.075 709.687,593.741 709,593.45C708.302,593.165 707.554,593.019 706.8,593.02C706.037,592.971 705.294,593.287 704.8,593.87C704.305,594.539 704.057,595.359 704.1,596.19C704.082,597.1 704.375,597.989 704.93,598.71C705.768,599.665 706.745,600.488 707.83,601.15C709.407,602.11 710.742,603.42 711.73,604.98C712.517,606.337 712.928,607.881 712.92,609.45Z" style="fill:rgb(179,179,179);fill-rule:nonzero;"/>
                    <path d="M735.8,593C734.27,593 733.07,593.9 732.19,595.68C731.201,598.031 730.75,600.573 730.87,603.12C730.87,609.74 732.597,613.047 736.05,613.04C737.733,612.989 739.372,612.492 740.8,611.6L740.8,616.33C739.188,617.308 737.323,617.788 735.44,617.71C732.468,617.832 729.644,616.369 728.03,613.87C726.31,611.323 725.447,607.727 725.44,603.08C725.433,598.433 726.323,594.82 728.11,592.24C729.727,589.74 732.544,588.265 735.52,588.36C736.536,588.355 737.547,588.5 738.52,588.79C739.615,589.136 740.652,589.642 741.6,590.29L739.84,594.61C739.255,594.195 738.64,593.824 738,593.5C737.317,593.16 736.563,592.988 735.8,593Z" style="fill:rgb(179,179,179);fill-rule:nonzero;"/>
                    <rect x="745.8" y="588.77" width="5" height="28.55" style="fill:rgb(179,179,179);fill-rule:nonzero;"/>
                    <path d="M765.6,617.32L760.31,617.32L760.31,593.43L754.84,593.43L754.84,588.77L771.07,588.77L771.07,593.43L765.6,593.43L765.6,617.32Z" style="fill:rgb(179,179,179);fill-rule:nonzero;"/>
                    <path d="M781,600L784.81,588.73L790.38,588.73L783.6,605.84L783.6,617.28L778.36,617.28L778.36,606.09L771.61,588.77L777.21,588.77L781,600Z" style="fill:rgb(179,179,179);fill-rule:nonzero;"/>
                    <path d="M570.65,506.21L561.65,466.75L561.3,466.75C561.701,469.523 561.918,472.319 561.95,475.12L562.13,506.26L554.13,506.31L553.85,459.91L567.12,459.83L575.27,496.25L575.52,496.25L583.18,459.73L596.64,459.66L596.91,506.06L588.72,506.06L588.53,474.61C588.522,471.938 588.655,469.268 588.93,466.61L588.68,466.61L580.12,506.11L570.65,506.21Z" style="fill:white;fill-rule:nonzero;"/>
                    <path d="M627,505.88L624.26,494.18L612.17,494.25L609.59,506L601,506L612.22,459.34L623.93,459.27L635.72,505.8L627,505.88ZM622.6,486.54L620.06,475.77C619.91,475.11 619.57,473.47 619.06,470.84C618.55,468.21 618.21,466.45 618.06,465.56C617.793,467.38 617.46,469.38 617.06,471.56C616.66,473.74 615.59,478.74 613.85,486.56L622.6,486.54Z" style="fill:white;fill-rule:nonzero;"/>
                    <path d="M648.3,487.7L648.41,505.75L639.78,505.8L639.5,459.4L650.8,459.34C655.593,459.34 659.13,460.45 661.41,462.67C663.69,464.89 664.847,468.333 664.88,473C664.92,478.86 662.967,482.967 659.02,485.32L668.02,505.61L658.78,505.66L651.34,487.66L648.3,487.7ZM648.3,480.27L650.52,480.27C652.52,480.27 653.977,479.687 654.89,478.52C655.876,476.985 656.333,475.169 656.19,473.35C656.19,470.977 655.71,469.293 654.75,468.3C653.568,467.213 651.979,466.675 650.38,466.82L648.22,466.82L648.3,480.27Z" style="fill:white;fill-rule:nonzero;"/>
                    <path d="M683.28,477.46L689.36,459.11L698.36,459.06L687.51,486.92L687.62,505.52L679.11,505.57L679.01,487.32L667.86,459.24L676.97,459.18L683.28,477.46Z" style="fill:white;fill-rule:nonzero;"/>
                    <path d="M722.47,458.92L731.16,458.87L720.52,505.33L709.52,505.4L698.39,459.06L707.09,459.01L713.31,487.31C714.052,490.735 714.616,494.197 715,497.68C715.433,493.853 715.973,490.39 716.62,487.29L722.47,458.92Z" style="fill:white;fill-rule:nonzero;"/>
                    <path d="M737.08,505.23L736.81,458.83L744.94,458.83L745.21,505.23L737.08,505.23Z" style="fill:white;fill-rule:nonzero;"/>
                    <path d="M755,505.13L754.72,458.73L763.36,458.68L763.58,497.52L775.58,497.46L775.58,505.01L755,505.13Z" style="fill:white;fill-rule:nonzero;"/>
                    <path d="M781.14,505L780.86,458.6L789.5,458.55L789.72,497.39L801.72,497.32L801.72,504.88L781.14,505Z" style="fill:white;fill-rule:nonzero;"/>
                    <path d="M828.17,504.7L807.26,504.82L806.98,458.42L827.9,458.3L827.9,465.76L815.62,465.83L815.69,476.83L827.08,476.77L827.08,484.26L815.69,484.32L815.76,497.18L828.05,497.11L828.17,504.7Z" style="fill:white;fill-rule:nonzero;"/>
                    <path d="M394.76,338.36C397.306,338.398 399.38,340.503 399.38,343.049C399.38,345.622 397.263,347.739 394.69,347.739C392.117,347.739 390,345.622 390,343.049C390,343.033 390,343.016 390,343C390.027,340.446 392.136,338.359 394.69,338.359C394.713,338.359 394.737,338.36 394.76,338.36Z" style="fill:white;fill-rule:nonzero;"/>
                    <path d="M394.76,338.36C397.306,338.398 399.38,340.503 399.38,343.049C399.38,345.622 397.263,347.739 394.69,347.739C392.117,347.739 390,345.622 390,343.049C390,343.033 390,343.016 390,343C390.005,340.431 392.121,338.32 394.69,338.32C394.7,338.32 394.71,338.32 394.72,338.32M394.72,332.64C389.046,332.662 384.39,337.336 384.39,343.01C384.39,348.699 389.071,353.38 394.76,353.38C400.449,353.38 405.13,348.699 405.13,343.01C405.13,343.007 405.13,343.003 405.13,343C405.114,337.319 400.441,332.651 394.76,332.64L394.72,332.64Z" style="fill:rgb(179,179,179);fill-rule:nonzero;"/>
                    <path d="M855.46,705.57C855.619,707.795 854.901,709.997 853.46,711.7C851.905,713.2 849.786,713.974 847.63,713.83C845.422,713.896 843.234,713.39 841.28,712.36L841.28,707.11C842.997,708.36 845.04,709.086 847.16,709.2C848.008,709.265 848.845,708.958 849.45,708.36C849.995,707.73 850.275,706.912 850.23,706.08C850.23,705.131 849.905,704.209 849.31,703.47C848.447,702.448 847.436,701.562 846.31,700.84C845.278,700.158 844.343,699.341 843.53,698.41C842.875,697.633 842.358,696.751 842,695.8C841.641,694.717 841.468,693.581 841.49,692.44C841.365,690.313 842.084,688.221 843.49,686.62C844.923,685.158 846.915,684.375 848.96,684.47C851.193,684.484 853.379,685.121 855.27,686.31L853.52,690.57C852.877,690.192 852.209,689.858 851.52,689.57C850.827,689.279 850.082,689.133 849.33,689.14C848.567,689.09 847.823,689.406 847.33,689.99C846.838,690.66 846.594,691.48 846.64,692.31C846.624,693.216 846.917,694.102 847.47,694.82C848.302,695.784 849.28,696.611 850.37,697.27C851.943,698.231 853.277,699.537 854.27,701.09C855.051,702.454 855.461,703.998 855.46,705.57Z" style="fill:rgb(179,179,179);fill-rule:nonzero;"/>
                    <path d="M867.75,713.44L862.45,713.44L862.45,689.55L857,689.55L857,684.88L873.23,684.88L873.23,689.55L867.77,689.55L867.75,713.44Z" style="fill:rgb(179,179,179);fill-rule:nonzero;"/>
                    <path d="M874.8,710.76C874.747,709.898 875.039,709.048 875.61,708.4C876.261,707.797 877.135,707.492 878.02,707.56C878.906,707.497 879.78,707.796 880.44,708.39C881.023,709.036 881.319,709.892 881.26,710.76C881.316,711.633 881.008,712.492 880.41,713.13C879.76,713.738 878.888,714.052 878,714C877.117,714.062 876.247,713.754 875.6,713.15C875.022,712.494 874.733,711.632 874.8,710.76Z" style="fill:rgb(179,179,179);fill-rule:nonzero;"/>
                    <path d="M895.83,713.44L895.83,684.88L901.14,684.88L901.14,708.79L908.51,708.79L908.51,713.44L895.83,713.44Z" style="fill:rgb(179,179,179);fill-rule:nonzero;"/>
                    <path d="M931.55,699.12C931.55,703.853 930.667,707.487 928.9,710.02C927.105,712.414 924.282,713.827 921.29,713.827C918.298,713.827 915.475,712.414 913.68,710.02C911.893,707.5 911,703.853 911,699.08C911,694.307 911.883,690.683 913.65,688.21C915.376,685.713 918.278,684.281 921.31,684.43C924.322,684.293 927.198,685.734 928.89,688.23C930.663,690.743 931.55,694.373 931.55,699.12ZM916.46,699.12C916.33,701.66 916.75,704.197 917.69,706.56C918.24,708.08 919.684,709.104 921.3,709.12C924.5,709.12 926.1,705.787 926.1,699.12C926.1,692.453 924.513,689.12 921.34,689.12C919.715,689.127 918.255,690.146 917.69,691.67C916.749,694.036 916.329,696.577 916.46,699.12Z" style="fill:rgb(179,179,179);fill-rule:nonzero;"/>
                    <path d="M953.27,684.88L953.27,703.36C953.27,706.76 952.503,709.353 950.97,711.14C949.273,712.998 946.821,713.989 944.31,713.83C941.853,713.987 939.456,713.001 937.82,711.16C936.34,709.393 935.6,706.767 935.6,703.28L935.6,684.88L940.87,684.88L940.87,703.67C940.87,707.31 942.07,709.12 944.48,709.12C945.53,709.158 946.523,708.631 947.08,707.74C947.77,706.525 948.09,705.134 948,703.74L948,684.88L953.27,684.88Z" style="fill:rgb(179,179,179);fill-rule:nonzero;"/>
                    <rect x="959.15" y="684.88" width="5" height="28.56" style="fill:rgb(179,179,179);fill-rule:nonzero;"/>
                    <path d="M983.19,705.57C983.349,707.795 982.631,709.997 981.19,711.7C979.636,713.202 977.516,713.977 975.36,713.83C973.155,713.896 970.971,713.39 969.02,712.36L969.02,707.11C970.734,708.358 972.773,709.084 974.89,709.2C975.741,709.26 976.578,708.954 977.19,708.36C977.728,707.726 978.003,706.91 977.96,706.08C977.96,705.131 977.635,704.209 977.04,703.47C976.176,702.45 975.165,701.563 974.04,700.84C973.004,700.161 972.065,699.343 971.25,698.41C970.616,697.631 970.122,696.748 969.79,695.8C969.422,694.719 969.246,693.582 969.27,692.44C969.145,690.313 969.864,688.221 971.27,686.62C972.707,685.157 974.702,684.374 976.75,684.47C978.983,684.484 981.169,685.121 983.06,686.31L981.3,690.57C980.656,690.193 979.988,689.859 979.3,689.57C978.603,689.28 977.855,689.134 977.1,689.14C976.336,689.086 975.591,689.403 975.1,689.99C974.6,690.656 974.352,691.478 974.4,692.31C974.384,693.216 974.677,694.102 975.23,694.82C976.064,695.782 977.042,696.608 978.13,697.27C979.706,698.227 981.041,699.534 982.03,701.09C982.805,702.455 983.206,704.001 983.19,705.57Z" style="fill:rgb(179,179,179);fill-rule:nonzero;"/>
                    <path d="M999.85,680.35C1002.41,680.366 1004.51,682.478 1004.51,685.04C1004.51,687.613 1002.39,689.73 999.82,689.73C997.247,689.73 995.13,687.613 995.13,685.04C995.13,685.033 995.13,685.027 995.13,685.02C995.141,682.455 997.255,680.35 999.82,680.35C999.83,680.35 999.84,680.35 999.85,680.35Z" style="fill:white;fill-rule:nonzero;"/>
                    <path d="M999.85,680.35C1002.41,680.366 1004.51,682.478 1004.51,685.04C1004.51,687.613 1002.39,689.73 999.82,689.73C997.247,689.73 995.13,687.613 995.13,685.04C995.13,685.033 995.13,685.027 995.13,685.02C995.141,682.455 997.255,680.35 999.82,680.35C999.83,680.35 999.84,680.35 999.85,680.35M999.85,674.66C994.161,674.66 989.48,679.341 989.48,685.03C989.48,690.719 994.161,695.4 999.85,695.4C1005.54,695.4 1010.22,690.719 1010.22,685.03C1010.22,685.02 1010.22,685.01 1010.22,685C1010.2,679.321 1005.53,674.656 999.85,674.64L999.85,674.66Z" style="fill:rgb(179,179,179);fill-rule:nonzero;"/>
                    <g transform="matrix(1,0,0,1,-431.255,-78.28)">
                        <path d="M999.85,680.35C1002.41,680.366 1004.51,682.478 1004.51,685.04C1004.51,687.613 1002.39,689.73 999.82,689.73C997.247,689.73 995.13,687.613 995.13,685.04C995.13,685.033 995.13,685.027 995.13,685.02C995.141,682.455 997.255,680.35 999.82,680.35C999.83,680.35 999.84,680.35 999.85,680.35Z" style="fill:white;fill-rule:nonzero;"/>
                    </g>
                    <g transform="matrix(1,0,0,1,-431.255,-78.28)">
                        <path d="M999.85,680.35C1002.41,680.366 1004.51,682.478 1004.51,685.04C1004.51,687.613 1002.39,689.73 999.82,689.73C997.247,689.73 995.13,687.613 995.13,685.04C995.13,685.033 995.13,685.027 995.13,685.02C995.141,682.455 997.255,680.35 999.82,680.35C999.83,680.35 999.84,680.35 999.85,680.35M999.85,674.66C994.161,674.66 989.48,679.341 989.48,685.03C989.48,690.719 994.161,695.4 999.85,695.4C1005.54,695.4 1010.22,690.719 1010.22,685.03C1010.22,685.02 1010.22,685.01 1010.22,685C1010.2,679.321 1005.53,674.656 999.85,674.64L999.85,674.66Z" style="fill:rgb(179,179,179);fill-rule:nonzero;"/>
                    </g>
                    <path d="M991,1043.88L998.52,1031.23L998.92,1028.47L1000.16,1027.47L1000.16,1027.3L1001.05,1024.52L1002.84,1023.25L1003.78,1021.31L1009.42,1017.87L1009.42,1016.51L1011.71,1011.85L1013.26,1011.3L1015.06,1009.21L1019.54,1006.66L1021.54,1004.12L1022.19,1001.34L1026.01,999.8L1026.19,998.97L1025.7,998.47L1025.33,995.69L1025.83,994.55L1025.83,993.1L1025.93,992.92L1025.93,990.92L1026.93,989.92L1026.93,989.53L1024,989.21L1023.54,988.63L1022.54,988.56L1021.91,987.77L1019.53,986.32L1019.53,986.05L1018.53,982.78L1019.1,980.65L1019.42,980.16L1019.42,979.66L1019.23,979.14L1017.44,977.28L977,977.28L918.79,977.16L884.79,977.16L861,977.17L809.94,977.29L770.41,977.35L735.92,977.29L688.92,977.23L687.05,977.29L628.36,977.17L606.53,977L545.19,977.07L545.13,950.51L545,937.62L545.1,898.95L545.3,858.57L545.54,766.46L545.68,722.85L545.83,711.36L546.02,676.76L546.27,662.34L546.27,625.45L544.78,625.63L542,623.79L541.47,622.93L540.9,623.34L535.24,623.44L530.77,620.9L529.21,618.52L527.82,618.52L522.29,615.36L521.96,611.99L522.49,610.33L516,604L514.22,596.12L514.72,594.77L514.04,594.66L511.32,592.66L510.53,590.37L509.8,590.13L507.62,587.67L507.12,586.31L501.68,583.53L499.98,580.71L499.49,577.98L494.89,574.13L494.26,573.53L492.58,569.46L492.48,566.46L493.48,563.91L495.66,561.67L498.66,560.86L499,560.96L498.85,560.55L498.85,558.34L501.71,552.34L507.97,548.65L508.17,542.77L510.53,540.02L511.53,539.72L511.53,537.27L513.53,534.27L514.53,533.98L513.27,533.57L510.39,528.26L511.01,527.02L509.48,527.02L509.34,528.02L506.84,531.15L492.84,529.92L490.37,527.21L489.79,527.44L484.79,525.63L482.87,523.23L482.87,521.03L481.54,520.83L472.98,513.83L472.24,512.04L469.48,509.69L464.66,509.95L461,505.89L460.4,503.03L460.62,500.82L461.62,498.6L461.55,497.52L461.92,496.12L459.75,493.21L459.31,490.97L453.61,485.91L453.92,482.48L455.04,480.48L448.74,479L448,479L446,474.83L446.17,473.49L443.43,472.49L439.67,473.7L436.29,471.78L435.18,468.53L435.76,465.15L437.76,463.96L437.69,463.89L436.91,459.74L434.67,455.64L435.07,453.16L431.61,449.81L430.81,447.81L430.81,444.81L431.7,443.89L427.9,443.41L424.79,441.15L423.97,438.25L424.06,437.25L424.01,437.1L423.54,436.65L422.9,434L423.6,430.72L427.22,428.04L469.27,428.79L487.27,429.03L517.56,429.64L547.62,430.13L564.51,430.25L589.75,430.18L612.54,429.82L637.95,429.34L661.45,429.09L679.85,428.97L709.98,428.43L750.47,427.58L758.47,427.46L788.47,426.67L807.16,426.24L832.09,425.4L857.02,424.33L859.02,427.33L862.49,429.72L863.43,433.11L867.88,434.34L870.68,436.85L870.51,440.12L872.51,441.61L874.05,444.79L879.54,445.54L881.14,450.34L880.72,451.06L881.43,452.53L881.2,453.12L883.34,454.46L888.88,455.57L893.73,459.57L887.91,464.57L884.1,473.77L884.22,474.07L884.22,476.02L882.89,479.12L882.72,479.3L882.47,484.5L881.91,486.24L883.78,504.32L889.27,514.56L891.75,518.62L891.56,522.07L889.05,525.15L888.85,526.03L889.55,527.9L897.77,535.53L897.33,542.19L896.98,543.49L902.2,548L915.41,559.4L916.48,560.08L918.31,565.72L921.9,566.28L925.46,568.96L929.25,577.34L941.49,585.57L941.89,586.41L950.41,592.88L950.68,592.88L951.89,594L964.09,605.77L965.6,610.83L970.27,629.51L967,635.1L968.49,637.96L968.49,638.88L970.49,641.97L970.64,646.6L971.99,650.09L977.6,654.44L981.43,651.85L985.43,644.06L990.22,641.89L1011.06,648.4L1011.39,648.8L1028.3,658.31L1029.89,660.43L1030.71,663.36L1029.31,669.19L1028.31,671L1023.31,675L1019.72,679.81L1022.51,684.61L1022.91,686.77L1023.18,691.77L1014.88,704.63L1026.53,716.17L1026.63,718.17L1038.08,729.41L1050.22,729.41L1051.04,731.97L1051.38,732.34L1052.03,733.98L1052.03,734.9L1052.26,735.48L1052.26,737.65L1051.17,739.65L1051.31,740.07L1051.93,740.44L1053.69,744.11L1052.85,745.11L1053.85,748.97L1038.27,748.78L1038.27,759.1L1026.67,763.1L1028.28,763.88L1029.28,766.88L1040.83,775.06L1043.49,774.84L1047.14,776.74L1048.02,779.51L1048.02,782.27L1045.48,784.83L1046.79,787.2L1047.32,787.34L1051.85,783.34L1055.85,782.69L1062.77,788.21L1062.77,788.39L1074.96,797.18L1078.27,801.97L1077.5,804.65L1081.94,806.06L1083,808.24L1093.64,813.39L1093.29,820.91L1097.52,826.91L1097.11,831.29L1093.89,833.45L1093.35,833.45L1103.08,853.74L1101.53,863.74L1094.73,865.81L1093.54,867.1L1093.09,869.1L1093.76,869.1L1095.64,868.93L1097.96,870.57L1099.26,873.04L1098.45,877.15L1108.23,894.3L1107.93,895.62L1109.93,893.92L1119.74,894.22L1122.28,899.22L1126.12,902.05L1126.7,905.5L1129.39,904.59L1133.04,905.38L1135.38,907.17L1137.02,910.54L1137.02,914.44L1133.36,927.62L1129.23,930.71L1132.63,931.56L1133.79,933L1134.99,935.18L1134.99,940.25L1131.69,943.48L1126.59,942.74L1126.59,942.84L1129.42,947.18L1129.59,948.53L1130.06,949.29L1130.4,952.29L1126.56,956.87L1125.56,962.97L1121.56,967.46L1115.62,968.38L1111.93,966.2L1107.23,959.74L1103.02,974.74L1099.61,979.74L1095.39,982.37L1092.71,982.65L1090.27,981.4L1092.72,986.4L1093.01,992.01L1091.27,995.59L1088.65,997.76L1087.01,997.94L1090.37,1000.36L1090.52,1004.28L1089.77,1006.63L1087.35,1009.46L1077.14,1009.66L1079.14,1011.57L1085.14,1017.5L1085.53,1020.43L1084.41,1024.16L1076.23,1029.24L1075.48,1034.63L1069.99,1042.63L1007.42,1043.26L991,1043.88ZM1006.38,1032.73L1006.2,1033.96L1005.28,1035.5L1007.45,1035.5L1065.92,1034.91L1067.99,1031.91L1068.99,1024.68L1076.34,1020.11L1073.75,1017.53L1066.6,1010.85L1065.36,1007.75L1066.36,1004.5L1068.72,1002.08L1078.72,1001.88L1075.23,999.36L1074.29,995.84L1074.91,992.46L1077.33,989.88L1085.14,990.31L1085.06,988.69L1081.06,980.55L1081.82,979.21L1081.82,978.46L1084.15,976.36L1083.4,975.28L1080.78,971.79L1079.13,966.19L1079.79,963.04L1081.67,960.26L1086.12,958.18L1095.44,959.72L1097.64,965.23L1100.35,955.6L1102.19,953.03L1105.51,951.32L1109.93,951.76L1112.3,953.07L1117.53,960.26L1117.7,960.26L1118.24,959.66L1119.24,953.66L1121.95,950.53L1121.95,950.26L1118.86,945.51L1118.86,940.6L1120.76,937.23L1122.62,935.97L1121.01,932.65L1121.26,926.48L1124.08,923.72L1126.26,923.51L1126.7,923.18L1129.34,913.49L1125.15,914.91L1121.88,913.91L1119.88,911.68L1119.47,909.27L1117.34,911.7L1114.93,912.7L1111.19,911.97L1108.59,909.12L1099.98,903.47L1098.98,900.47L1099.98,895.95L1090.26,878.95L1090.57,877.39L1089.12,877.33L1085.73,872.63L1085.03,869.75L1086.39,863.62L1090.56,859.07L1092.09,858.65L1094.6,857.89L1094.99,855.35L1084.71,833.91L1084.83,831.51L1084.99,830.39L1085.37,828.55L1087.22,826.23L1085.37,823.6L1085.6,818.6L1077.23,814.54L1076.45,812.96L1070.45,811.08L1070.45,810.31L1068.69,807.21L1069.69,803.71L1069.31,803.17L1060.03,796.48L1058.62,796.38L1055.8,793.07L1054.55,792.07L1051.3,794.94L1047.72,795.94L1041.6,794.3L1036.97,785.97L1036.97,783.6L1037.39,782.42L1022.69,772L1021.89,769.73L1005.89,761.91L1030.39,753.51L1030.39,740.83L1042.98,740.98L1042.79,740.68L1042.31,738.24L1041.75,737.53L1030.24,737.53L1030.24,733L1018.83,721.8L1018.73,719.73L1005.36,706.5L1007.03,702.16L1015.09,689.67L1014.98,687.53L1011.66,681.83L1011.66,677.3L1016.37,671L1016.37,670.09L1018.13,668.95L1021.93,665.95L1022.35,664.19L1007.05,655.59L991.15,650.59L987.66,657.38L977.33,664.38L965.33,655.03L964.19,651.82L962.8,648.33L962.66,644.47L960.66,641.25L960.66,639.99L958.66,636.12L958.89,633.52L961.89,628.39L958.03,612.96L957.2,610.17L946.81,600.17L935.65,591.69L935.36,591.08L923.06,582.81L919,574.16L918.68,573.92L914.02,573.19L911.36,570.31L909.65,565.05L896.9,554.05L889.71,547.63L888.92,543.21L889.54,540.91L889.68,538.83L882.86,532.51L880.65,526.62L881.81,521.62L883.23,519.88L882.41,518.52L876.12,506.79L873.91,485.46L874.62,483.04L875.05,476.04L876.05,474.95L876.05,473L876.74,470.9L880.17,462.67L878.72,462.67L876.44,459.5L872.44,457.01L872.44,454L872.16,453.66L871.92,452.59L870.45,452.39L867.75,449.95L866.29,446.95L863.37,444.82L862.46,441.98L862.46,441.19L857.01,439.69L855.23,436.24L855.23,434.47L853.23,433.09L852.89,432.57L832.45,433.44L807.45,434.29L788.73,434.72L758.67,435.51L750.67,435.63L710.19,436.48L680,437L661.57,437.12L638.11,437.37L612.73,437.85L589.87,438.21L564.54,438.28L547.54,438.16L517.43,437.67L487.21,437L469.21,436.76L443.21,436.3L443.68,437.43L443.52,441.43L442.41,444.23L440.94,444.85L440.94,446L440.12,446.91L442.61,449.32L443.28,452.77L443,454.2L444.54,457.01L445.13,460.14L446.29,461.4L447.16,463.76L446.95,465.26L451.29,466.85L453.9,469.39L454.61,471.45L454.61,472.21L460.24,473.55L463.06,478.4L463.06,482.61L462.66,483.28L466.59,486.77L466.99,488.77L467.99,488.91L470.58,490.91L471.34,493.28L471.34,496.28L469.64,498.4L469.75,500L469.06,501.58L472.31,501.41L478.96,507.07L479.68,508.79L484.98,513.15L489.86,513.88L491.43,518.08L493.3,517.31L497.39,520.31L497.68,522.25L502.22,522.65L504.46,519.56L508.4,518.63L509.88,519L516.05,519.14L519.2,521.49L520.33,524.34L520.33,526.54L519.95,527.29L522.95,528.29L525.53,532.09L525.53,533.28L525.68,535.28L525.04,536.96L526.6,538.7L527.22,543.5L526.33,545.96L521.51,550.58L516,548.33L515.92,550.88L514.72,553.88L507.9,557.88L507.08,559.6L507.99,562.18L507.34,565.18L504.42,568.48L501.76,569.34L505.89,572.74L507.14,575.09L507.55,577.4L513.55,580.47L514.55,583.13L515.89,583.58L518.14,586.23L519.85,585.61L523.26,587.52L525.03,590.21L525.25,592.71L524.12,595.52L522.62,596.76L523.32,599.85L531.22,607.62L530.78,610.48L533.3,610.54L535.39,613.33L536.39,614.82L537.26,615.32L538.26,615.32L540.26,613.95L544.2,613.81L547.2,615.4L548.28,617.07L551.28,616.7L554.14,618.08L555.82,621.21L555.82,623.68L554.22,626.95L554.22,662.36L554,676.85L553.81,711.43L553.66,722.92L553.37,820.19L553.28,862L553.08,899L553.08,906.67L552.98,937.61L553.13,950.47L553.13,969.07L606.52,969.01L628.38,969.19L686.98,969.31L688.84,969.25L744.33,969.31L770.33,969.37L813.25,969.31L860.92,969.19L888.63,969.25L918.7,969.25L976.92,969.37L1026.98,969.37L1025.75,973.84L1027.48,978.62L1027.48,979.38L1027.9,980.74L1027.75,981.23L1028.13,981.71L1030.38,981.95L1033.51,984.4L1035.06,987.4L1034.64,993.63L1034.37,993.89L1034.37,993.98L1033.91,994.85L1033.91,995.56L1034.58,996.26L1034.98,998.72L1034.54,1001.62L1033.54,1002.62L1033.27,1003.86L1031.56,1006.2L1028.98,1007.2L1028.1,1010.94L1020.1,1015.47L1017.83,1018.11L1017.34,1018.28L1017.34,1020.58L1016.14,1023.07L1009.88,1026.9L1009.07,1028.59L1008.07,1029.29L1008.07,1031.29L1006.38,1032.73ZM1088,968.07L1089.22,969.69L1089.95,967.57L1089.65,966.81L1087.53,966.46L1088,968.07Z" style="fill:white;fill-rule:nonzero;"/>
                    <path d="M517.51,386.2C495.531,386.233 477.457,404.311 477.43,426.29C477.426,428.814 477.664,431.332 478.14,433.81C478.14,433.96 478.24,434.4 478.41,435.15C479.023,437.875 479.925,440.527 481.1,443.06C485.42,453.23 494.91,468.85 515.75,485.58C516.793,486.404 518.277,486.404 519.32,485.58C540.13,468.85 549.65,453.23 553.97,443.06C555.15,440.529 556.048,437.877 556.65,435.15C556.82,434.4 556.91,433.96 556.93,433.81C557.396,431.33 557.634,428.813 557.64,426.29C557.58,404.305 539.495,386.238 517.51,386.2Z" style="fill:white;fill-rule:nonzero;"/>
                    <path d="M517.51,386.2C495.531,386.233 477.457,404.311 477.43,426.29C477.426,428.814 477.664,431.332 478.14,433.81C478.14,433.96 478.24,434.4 478.41,435.15C479.023,437.875 479.925,440.527 481.1,443.06C485.42,453.23 494.91,468.85 515.75,485.58C516.793,486.404 518.277,486.404 519.32,485.58C540.13,468.85 549.65,453.23 553.97,443.06C555.15,440.529 556.048,437.877 556.65,435.15C556.82,434.4 556.91,433.96 556.93,433.81C557.396,431.33 557.634,428.813 557.64,426.29C557.58,404.305 539.495,386.238 517.51,386.2ZM551.31,432.83L551.31,432.95C551.31,432.99 551.22,433.37 551.12,433.86C550.591,436.214 549.81,438.504 548.79,440.69C547.77,442.876 548.79,440.75 548.79,440.78C544.87,450.06 536.27,464.24 517.57,479.69C498.87,464.24 490.28,450.06 486.36,440.78C486.36,440.78 486.36,440.71 486.31,440.69C485.308,438.498 484.531,436.209 483.99,433.86C483.91,433.56 483.847,433.257 483.8,432.95C483.753,432.643 483.8,432.87 483.8,432.81C483.384,430.658 483.175,428.472 483.175,426.28C483.175,407.398 498.713,391.86 517.595,391.86C536.477,391.86 552.015,407.398 552.015,426.28C552.015,428.472 551.806,430.658 551.39,432.81L551.31,432.83Z" style="fill:rgb(0,101,72);fill-rule:nonzero;"/>
                    <path d="M517.51,401.28C503.564,401.302 492.1,412.784 492.1,426.73C492.1,440.691 503.589,452.18 517.55,452.18C531.511,452.18 543,440.691 543,426.73C542.978,412.777 531.503,401.302 517.55,401.28L517.51,401.28ZM517.51,446.52C506.654,446.52 497.72,437.586 497.72,426.73C497.72,415.874 506.654,406.94 517.51,406.94C528.366,406.94 537.3,415.874 537.3,426.73C537.284,437.58 528.36,446.504 517.51,446.52Z" style="fill:rgb(0,101,72);fill-rule:nonzero;"/>
                </g>
            </g>
            <path d="M576,1029.4C293.705,1029.21 61.519,796.866 61.519,514.57C61.519,308.179 185.629,120.888 375.7,40.45C439.097,13.67 507.224,-0.129 576.045,-0.129C858.486,-0.129 1090.9,232.284 1090.9,514.725C1090.9,721.248 966.636,908.636 776.39,989C712.994,1015.81 644.833,1029.55 576,1029.4ZM576,12.4C300.506,12.591 73.918,239.336 73.918,514.83C73.918,716.249 195.038,899.029 380.53,977.53C441.874,1003.15 507.697,1016.35 574.177,1016.35C849.802,1016.35 1076.61,789.542 1076.61,513.917C1076.61,313.099 956.208,130.751 771.53,51.87C709.674,25.693 643.167,12.268 576,12.4Z" style="fill:white;fill-rule:nonzero;"/>
        </g>
    </g>
</svg>
