<?xml version="1.0" encoding="utf-8"?>
<!-- Generator: Adobe Illustrator 23.0.3, SVG Export Plug-In . SVG Version: 6.00 Build 0)  -->
<svg version="1.1" id="Layer_1" xmlns="http://www.w3.org/2000/svg" xmlns:xlink="http://www.w3.org/1999/xlink" x="0px" y="0px"
	 viewBox="0 0 216 216" style="enable-background:new 0 0 216 216;" xml:space="preserve">
<style type="text/css">
	.st0{fill:#006848;}
</style>
<title>MyNorthwest</title>
<g>
	<g id="Layer_1-2">
		<path class="st0" d="M53,119.9c-0.8,1.3-2.3,1.9-3.8,1.8c-1.3,0.1-2.6-0.6-3.2-1.8c-0.6-1.2-1-3.5-1-7.2c0-1.7,0.1-4.5,0.3-8.4
			c0.2-3.9,0.3-6.6,0.3-8.1c0-3.9-0.4-6.1-1.3-6.6c-0.8-0.5-3.2,4.2-7.2,14c-2.4,5.6-4.5,11.3-6.3,17.1c-1,3.7-2.3,5.4-4.1,5
			c-1.6-0.2-2.9-1.3-3.5-2.9c-0.4-1.5-0.6-3-0.6-4.6c-0.1-5-0.2-10-0.3-15c-0.2-7.3-0.5-11.1-1-11.4c-0.4-0.2-1,0.3-1.7,1.8
			c-0.8,1.8-1.6,3.7-2.4,5.4c-3.8,8.6-5.7,15.5-5.7,20.8v2c0.3,1.2-0.2,2.5-1.3,3.1c-0.9,0.5-1.9,0.8-2.9,0.7
			c-1.3,0.2-2.7-0.4-3.5-1.5c-0.5-1.2-0.7-2.5-0.6-3.7c0-1.8,0.3-5.6,0.8-11.1C4.8,103.9,5,100,5,97.6c0-1.1,0-2-0.1-2.8
			c-0.3-1.6-0.2-3.3,0.3-4.9c0.7-1.2,2-1.9,3.4-1.9c1.1,0,2.2,0.4,3,1.1c0.8,0.7,1.4,1.6,1.5,2.7c3.8-6.7,6.6-10.1,8.6-10.1
			c2.1,0,3.9,1.3,5.4,3.8c0.9,1.6,1.7,7.4,2.2,17.5C35.9,89.3,41,82.2,44.6,81.6c1.4-0.2,2.8,0.5,4.5,2.1c1.2,1.1,2.1,2.5,2.6,4
			c0.5,1.9,0.8,6.6,0.8,14.2v12c0,0.7,0.1,1.5,0.4,2.2c0.3,0.7,0.4,1.4,0.5,2.2C53.4,118.8,53.3,119.4,53,119.9z"/>
		<path class="st0" d="M88.8,99.8c-0.8,8.4-2.2,21.8-4,40c-0.1,0.1-0.5,3.3-1.3,9.4c-0.9,5.8-1.3,8.8-1.3,8.8
			c0.8,1.2,1.3,2.7,1.4,4.1c0,1.2-0.5,2.3-1.4,3c-0.9,0.7-2,1.1-3.2,1.1c-1.2,0-2.3-0.4-3.3-1.1c-0.9-0.8-1.4-2-1.3-3.2
			c-0.2-1.6,0.5-3.2,1.7-4.2c0.2-3.4,1-12.4,2.3-27.2c0.7-6.5,1.1-11.1,1.4-14c0.3-4.5,0.6-9.1,0.7-14.1c-6.2,7-9.3,10.5-9.5,10.7
			c-4.2,4.3-7.2,6.5-9,6.4c-2.6,0-4-2.5-4-7.3c0-1.5,0.7-8.2,2.2-19.9c0.4-3.1,0.7-5,0.9-5.7c0.7-2.5,1.8-3.7,3.5-3.7
			c1.1,0.1,2.1,0.5,3,1.2c0.9,0.6,1.5,1.5,1.6,2.6c-0.4,3.5-1,7-1.9,10.4c-0.9,3.6-1.6,7.3-2,11c0,0.3,0,0.6,0.2,0.8
			c0.3,0.2,2.2-1.9,5.9-6.4c5-6.2,7.8-9.6,8.3-10.2l1.7-2.8c0.6-1.1,1.6-1.8,2.9-1.8c0.5,0,1,0.1,1.5,0.3c0.9,0.4,1.7,1.5,2.2,3.3
			c0.6,2,0.8,4,0.8,6C88.9,98.3,88.9,99.1,88.8,99.8z"/>
		<path class="st0" d="M109.4,84.3v39H97.2V62.1h12.5l20.1,37.5V62.1h12.3v61.3h-11.7L109.4,84.3z"/>
		<path class="st0" d="M179,82.5l-7.9,40.8h-12.8l-14-61.3h13.2l7.9,42.6l8.7-42.6h9.6l8.8,42.6l7.8-42.6h13.2l-13.9,61.3h-12.9
			L179,82.5z"/>
	</g>
</g>
</svg>
