<?xml version="1.0" encoding="UTF-8"?>
<svg id="Layer_1" xmlns="http://www.w3.org/2000/svg" version="1.1" viewBox="0 0 570.7 268.7">
  <!-- Generator: Adobe Illustrator 29.0.0, SVG Export Plug-In . SVG Version: 2.1.0 Build 186)  -->
  <defs>
    <style>
      .st0 {
        fill: #006747;
      }
    </style>
  </defs>
  <path class="st0" d="M506.5,218.4c.5-107.4-137.3-104.5-148.8.3l-147.9-.2c.5-106.4-137.8-104.5-148.8.2l-55.1-2.2c-14.2-20.9,1.6-42,4.5-58.1s-3.3-28.8,5.8-40.7c12.4-13.1,90.1-21.8,114.2-34.1,34.8-17.7,62.2-58.6,103-74.1C255.2,1.3,307.5-.2,354.5,0c35,.2,67.3-.7,81,8.3,14.2,9.3,47.5,48.3,57.8,52.9,10.7,4.7,23.5.6,35.6,4.2,31.1,9.3,20,68.2,27.2,92.3,1.9,6.4,10.4,9,12.3,18.6,11.2,56.3-21.4,40.6-61.9,42ZM365.1,24.6s-75,3-100,3.4c-25.1.4-59.8,35-79.8,48.7,33.9-.7,179.7-6.7,179.7-6.7V24.6ZM453.4,67.9c-15-17.4-31.1-42.4-57.5-39.8v41.8s57.5-2,57.5-2Z"/>
  <path class="st0" d="M435.6,155.9c-31.1,0-56.4,25.2-56.4,56.4s25.2,56.4,56.4,56.4,56.4-25.2,56.4-56.4-25.2-56.4-56.4-56.4ZM435.6,230.7c-9.6,0-17.3-7.7-17.3-17.3s7.7-17.3,17.3-17.3,17.3,7.7,17.3,17.3-7.7,17.3-17.3,17.3Z"/>
  <path class="st0" d="M139,155.9c-31.1,0-56.4,25.2-56.4,56.4s25.2,56.4,56.4,56.4,56.4-25.2,56.4-56.4-25.2-56.4-56.4-56.4ZM139,230.7c-9.6,0-17.3-7.7-17.3-17.3s7.7-17.3,17.3-17.3,17.3,7.7,17.3,17.3-7.7,17.3-17.3,17.3Z"/>
</svg>