<?xml version="1.0" encoding="utf-8"?>
<!-- Generator: Adobe Illustrator 25.4.1, SVG Export Plug-In . SVG Version: 6.00 Build 0)  -->
<svg version="1.1" id="Layer_1" xmlns="http://www.w3.org/2000/svg" xmlns:xlink="http://www.w3.org/1999/xlink" x="0px" y="0px"
	 viewBox="0 0 360 360" style="enable-background:new 0 0 360 360;" xml:space="preserve">
<style type="text/css">
	.st0{fill:#7C2833;}
	.st1{fill:#646464;}
	.st2{fill:#FFFFFF;}
</style>
<path class="st0" d="M180.2,123.9c-53.6,0-97,43.4-97,97v97h194.1v-97C277.2,167.4,233.8,123.9,180.2,123.9z"/>
<path class="st1" d="M289.1,347H71.3c-6.4,0-11.7-5.2-11.7-11.7v-17.6c0-6.4,5.2-11.7,11.7-11.7h217.9c6.4,0,11.7,5.2,11.7,11.7
	v17.6C300.8,341.8,295.6,347,289.1,347z"/>
<rect x="173.4" y="13" class="st0" width="13.9" height="88.9"/>
<rect x="251.7" y="30.8" transform="matrix(0.866 0.5 -0.5 0.866 72.2741 -119.2537)" class="st0" width="13.9" height="88.9"/>
<rect x="306.6" y="79.5" transform="matrix(0.7071 0.7071 -0.7071 0.7071 179.4886 -185.4303)" class="st0" width="13.9" height="88.9"/>
<rect x="94.4" y="30.8" transform="matrix(-0.866 0.5 -0.5 -0.866 226.7083 89.7305)" class="st0" width="13.9" height="88.9"/>
<rect x="39.5" y="79.5" transform="matrix(-0.7071 0.7071 -0.7071 -0.7071 166.8902 178.7654)" class="st0" width="13.9" height="88.9"/>
<path class="st2" d="M205,148c0,0,19.7-6.5,38.7,15.5s15,65.5,15,65.5s-7.2-36.9-20.3-57.2C227.4,154.9,205,148,205,148z"/>
</svg>
